<svg xmlns="http://www.w3.org/2000/svg" enable-background="new 0 0 56 56" viewBox="0 0 56 56" width="256" height="256">
	<path fill="#ff9f1c" d="M4.3342733,30.6704578c0.8386526,3.3335285,3.3213429,6.3030529,6.6247444,6.5688915
								c1.0878372,0.0810585,2.2536106-0.1564064,3.3199577-0.4016991c0.0829201-0.021225,0.0931168-0.0236816,0.2928238-0.0856934
								c-0.1875,0.0229492-2.2583008-17.248045-2.0708008-17.2709942c-0.3310547-0.0322266-1.5320005,0.2252693-1.8305607,0.2769108
								c-1.5993528,0.2718754-2.0920086,0.3184586-3.4347301,1.2285748
								C4.3251967,23.0152359,3.4429653,27.205946,4.3342733,30.6704578z" class="colorff9f1c svgShape">
	</path>
	<path fill="#f58210" d="M4.3342733,30.6704578c1.0069804,4.046278,3.9297895,6.3520145,6.6247444,6.5688915
								c1.0878372,0.0810585,2.2536106-0.1564064,3.3199577-0.4016991c0.0553932-0.0141792,0.1113386-0.0284424,0.1713114-0.0495377
								c0.0038147-0.011879,0.0081387-0.0241165,0.0063972-0.0354195c-1.8910074,0.0564384-3.6223383-0.8856926-4.8978405-2.2628784
								c-0.0008488-0.0055161-0.0008488-0.0055161-0.0008488-0.0055161
								c-0.9699135-1.0413551-1.7384129-2.3911896-2.1854787-3.9409809
								c-0.0173917-0.002964-0.0289707-0.0011806-0.0460644,0.0014534c0.0076146,1.2878342,0.5212989,2.5555592,1.4207749,3.4804783
								c0.131012,0.1358948,0.2730522,0.270092,0.3571167,0.4420128c0.0832148,0.1664009,0.0945463,0.3901711-0.0329695,0.5371094
								c-0.1629267,0.1808968-0.4504766,0.1501236-0.682045,0.0760078
								C5.9008417,34.3174057,4.976387,30.7233849,4.3342733,30.6704578z" class="colorf58210 svgShape">
	</path>
	<path d="M7.8354917,36.0618286c0.9246669,0.6517372,1.9782043,1.08535,3.1235261,1.1775208
								c1.0878372,0.0810585,2.2536106-0.1564064,3.3199577-0.4016991c0.0553932-0.0141792,0.1113386-0.0284424,0.1713114-0.0495377
								c0.0038147-0.011879,0.0081387-0.0241165,0.0063972-0.0354195c-1.8910074,0.0564384-3.6223383-0.8856926-4.8978405-2.2628784
								l0.029583,0.0820885c0.2443304,0.64468,1.1990385,1.5412979,1.7809811,1.9163895
								c0.0576954,0.0373993,0.1223049,0.07938,0.1437817,0.1455002c0.0246201,0.082859-0.0301619,0.177948-0.1098528,0.2249413
								c-0.0799894,0.0413933-0.1721601,0.0440216-0.2643318,0.0466499
								C10.0089464,36.9061356,8.865262,36.5594406,7.8354917,36.0618286z" fill="#000000" class="color000 svgShape">
	</path>
	<path fill="#f58210" d="M7.544414 20.7771626c.7933068-.0646439 1.5872588-.0884609 2.3808789-.077795.0608559-.0556641.117939-.0991745.1805372-.1435337-.7654991-.0149994-1.5368004.0056095-2.3029203.0598564C7.7130828 20.6701717 7.6287274 20.7235298 7.544414 20.7771626zM5.6705642 22.5338097c.8536267-.0505104 1.713378-.0209618 2.5669942.0786839.0220051-.044035.0501175-.088726.0831928-.134182-.8420367-.101429-1.6971235-.1373425-2.5460858-.093195C5.7363744 22.4370213 5.6972761 22.4836884 5.6705642 22.5338097zM4.3426347 25.3570557c.9437428-.1397533 1.8985376-.1711349 2.844955-.1030045.0101271-.0478477.0202546-.0956955.036788-.1386032-.942347-.0746861-1.9026132-.0421791-2.8417339.0909348C4.3670025 25.2550812 4.3513613 25.3037796 4.3426347 25.3570557zM4.1078219 29.5377026c.9405594-.3472767 1.922585-.5792961 2.9231305-.687439-.0133295-.0498791-.0147815-.0959435-.0162334-.1420078-1.000546.1081429-1.9820199.3400764-2.923131.687439C4.09304 29.4417591 4.1008558 29.492487 4.1078219 29.5377026zM5.5283704 33.5443192c.0185456.0434303.0472269.0793724.0768003.1211052.8550329-.4151077 1.7672238-.7230148 2.6984868-.9071312-.0295734-.0417328-.0544825-.0898285-.0785418-.1324081C7.2938528 32.8100014 6.3831053 33.1236153 5.5283704 33.5443192z" class="colorf58210 svgShape">
	</path>
	<path fill="#ffd880" d="M7.0680928,29.1682758c0.0008922,0.0057888,0.0008922,0.0057888,0.0008922,0.0057888
								c1.0244455,6.6493988,7.436017,9.9822998,11.4681606,5.8514748c1.9717617-2.0540199,2.6161232-5.1569557,2.1850452-7.9549675
								c-0.7368298-4.7825642-4.3891773-8.190752-8.1552362-7.6105309
								C9.1818123,19.981575,6.2605662,23.9268341,7.0680928,29.1682758z" class="colorffd880 svgShape">
	</path>
	<path fill="#ff9f1c" d="M9.443531,28.7741108c0.566638,3.6778927,3.1223831,6.3395901,5.7013988,5.9422512
								c0.1489916-0.0229568,0.2963991-0.0561943,0.4422226-0.0997162c2.3187389-0.6833496,3.739151-3.8207722,3.2057476-7.2829533
								c-0.5666752-3.6781445-3.1224213-6.339838-5.7009354-5.9425774
								c-0.0928059,0.0142975-0.1793213,0.0327625-0.2700424,0.0572681
								C10.4019365,22.0212536,8.8966408,25.2243919,9.443531,28.7741108z" class="colorff9f1c svgShape">
	</path>
	<path fill="#f58210" d="M17.1467781 26.7187634c-.6074219.0751228-1.1638994-1.5059814-.3783684-1.6394424C17.5506344 24.9464207 17.7885418 26.6393948 17.1467781 26.7187634zM16.5071869 24.7476463c-.3597317.0444889-.6892929-.8918839-.224081-.9709225C16.7463608 23.6980171 16.8872547 24.7006416 16.5071869 24.7476463zM12.6408157 24.0833969l-.3925734.0441227.2405481 1.1782818-.8974981.0942631.1361895.6744003.3977947-.0456924c.0204086.1006374.7798948 3.8456917.7372217 3.6352654l-.3921785.0445824.1950588.9441566.8973846-.09478.2321081 1.1411362.393425-.0388985-.2332411-1.1463051.5338478-.0558548.2321081 1.1411381.3933125-.0394173-.2332411-1.1463032.53368-.0552826c.252037-.0276833.4506292-.2162266.5699539-.4936867.3993759-1.0010204-.3483858-2.4660988-1.1492786-2.3949203l.1529016-.0134926c.2103539-.0253773.3746834-.1791229.4687614-.4073944.3400745-.7824669-.2771244-2.0396137-.9517288-1.9590397l-.6982632.0716209-.2404337-1.1777649-.392292.0440655.2404337 1.1777649-.5338478.0558548L12.6408157 24.0833969zM14.8635397 28.3912144c.3344393.4490986.2884617 1.2438717-.1367922 1.3185787l-.0230255.004549-.6742716.0728111L13.7567759 28.46105C14.6649771 28.3775349 14.7050133 28.3213978 14.8635397 28.3912144zM14.2709274 25.8534565c.3584213.5151653.2454185 1.243084-.1367922 1.3185787l-.0230255.004549-.5164385.0524158-.271822-1.3208809C14.0923815 25.8374023 14.1409969 25.7952271 14.2709274 25.8534565z" class="colorf58210 svgShape">
	</path>
	<path fill="#ffd880" d="M12.8545494,24.0556278l-0.3925734,0.0441208l0.2405481,1.1782818l-0.8974981,0.094265
							l0.1361895,0.6744003l0.3977947-0.0456924c0.0204096,0.1006374,0.7798958,3.8456898,0.7372217,3.6352654l-0.3921785,0.0445824
							l0.1950588,0.9441566l0.8973846-0.0947819l0.2321081,1.1411381l0.393425-0.0389004l-0.2332411-1.1463032l0.5338488-0.0558548
							l0.2321081,1.1411362l0.3933115-0.0394154l-0.2332411-1.1463032l0.5336809-0.0552845
							c0.2520361-0.0276814,0.4506292-0.2162247,0.569953-0.4936867c0.3993759-1.0010204-0.3483858-2.4660988-1.1492786-2.3949184
							l0.1529026-0.0134926c0.2103539-0.0253773,0.3746824-0.1791229,0.4687605-0.4073944
							c0.3400755-0.7824688-0.2771244-2.0396137-0.9517279-1.9590397l-0.6982632,0.0716209l-0.2404346-1.1777649
							l-0.392292,0.0440655l0.2404346,1.1777649l-0.5338488,0.0558548L12.8545494,24.0556278z M15.0772734,28.3634453
							c0.3344402,0.4490986,0.2884617,1.2438717-0.1367912,1.3185787l-0.0230265,0.0045471l-0.6742716,0.0728111
							l-0.2726746-1.3261032C14.8787107,28.3497658,14.9187479,28.2936287,15.0772734,28.3634453z M14.4846611,25.8256874
							c0.3584223,0.5151653,0.2454185,1.243084-0.1367912,1.3185787l-0.0230265,0.004549l-0.5164385,0.0524158l-0.271822-1.3208809
							C14.3061152,25.8096333,14.3547316,25.7674561,14.4846611,25.8256874z" class="colorffd880 svgShape">
	</path>
	<path fill="#ff9f1c" d="M46.9792137,36.6565971c-1.5046768,0.6045494-2.9296227,0.4318047-4.6264038,0.1382675
									c-0.0826759-0.0163956-0.0926018-0.0182953-0.2924881-0.0682449
									c0.8576431-0.0359192,1.6419945-0.1655884,2.5982513-0.6715164c2.5513496-1.3275642,4.0840263-4.2763405,4.370121-7.1842575
									c0.0104637-0.1063423,0.0209236-0.2126827,0.0199318-0.3204269
									c0.0104179-0.0497627,0.0093613-0.0951328,0.0083046-0.1405048c0.0082092-0.0273457,0.0054855-0.0557671,0.008255-0.0839252
									c0.1785164-3.6026745-1.4413757-6.4776421-3.4872398-7.7651939
									c-0.0049019-0.006279-0.0158386-0.0073547-0.0213165-0.0134144
									c-0.6011925-0.3812599-1.6866341-0.7885342-2.3919144-0.9142303
									c0.3239326-0.0495911,1.5187035,0.1388283,1.8150482,0.1735058c1.149044,0.1310787,1.9221573,0.1834679,2.8657455,0.6887932
									c1.062645,0.5673618,1.9019394,1.2472744,2.6397743,2.3571701
									C53.5921288,27.5431194,51.6619987,34.8245773,46.9792137,36.6565971z" class="colorff9f1c svgShape">
	</path>
	<path fill="#f58210" d="M51.7982864,30.1946812c-0.6482964,3.3870602-2.7157478,5.6383495-4.8190727,6.461916
									c-1.5046768,0.6045494-2.9296227,0.4318047-4.6264038,0.1382675
									c-0.0552292-0.010952-0.1110039-0.0219612-0.1711121-0.0394669
									c-0.0043907-0.0114746-0.0093002-0.0232735-0.0081978-0.034481c1.8623657-0.0464935,3.5138779-1.0662079,4.6937332-2.489109
									c0.0005379-0.0054665,0.0005379-0.0054665,0.0005379-0.0054665c0.8975029-1.0762177,1.5803299-2.4448795,1.9363213-3.992815
									c0.0169411-0.0038528,0.0284233-0.0027237,0.045372-0.0010567c0.0619659,1.2666683-0.3747406,2.5408573-1.2092667,3.498785
									c-0.1214867,0.140686-0.2539101,0.2802963-0.3272934,0.4538651
									c-0.0728455,0.1681061-0.0719185,0.3887329,0.0613823,0.5263329
									c0.1699524,0.1690826,0.4510269,0.1233139,0.6747169,0.0379524
									C50.4546471,33.8650093,51.1697845,30.2813511,51.7982864,30.1946812z" class="colorf58210 svgShape">
	</path>
	<path d="M48.0026245,36.1354179c-0.0366592,0.0303421-0.0787697,0.0543518-0.1263733,0.0780983
										c-0.4939308-0.4951897-1.0387459-0.9332848-1.6295586-1.3022079
										c0.0317307-0.0363464,0.0683899-0.0666924,0.1006927-0.10326
										C46.9425392,35.1889915,47.4982948,35.6336823,48.0026245,36.1354179z" fill="#000000" class="color000 svgShape">
	</path>
	<path d="M48.646492,35.6845436c-0.5087852,0.4020576-1.0672874,0.7371216-1.6672783,0.9720535
									c-1.5046768,0.6045494-2.9296227,0.4318047-4.6264038,0.1382675
									c-0.0552292-0.010952-0.1110039-0.0219612-0.1711121-0.0394669
									c-0.0043907-0.0114746-0.0093002-0.0232735-0.0081978-0.034481c1.8623657-0.0464935,3.5138779-1.0662079,4.6937332-2.489109
									l-0.0246582,0.0823097c-0.2054672,0.6470566-1.0958252,1.5801392-1.647789,1.9803314
									c-0.0547104,0.0398827-0.1159744,0.0846405-0.1335258,0.1508141
									c-0.0197372,0.082798,0.039257,0.1733398,0.1201439,0.2152481c0.080883,0.0363846,0.1716499,0.0340004,0.2624207,0.0316124
									C46.5549889,36.631916,47.6608124,36.229351,48.646492,35.6845436z" fill="#000000" class="color000 svgShape">
	</path>
	<path fill="#f58210" d="M48.1083794 20.640276c-.7835007-.0207767-1.5654335-.0013771-2.3451805.0519123-.0628395-.0514488-.121315-.0911522-.1852531-.1313934.7518616-.0560322 1.5113525-.077364 2.2675629-.0653458C47.9367676 20.5441742 48.0225868 20.5920887 48.1083794 20.640276zM50.0455704 22.2664318c-.8420486-.0036278-1.6858025.0717945-2.5197411.2158051-.0240097-.0421085-.0540619-.0845356-.089035-.1274471.8224564-.1451416 1.6612816-.2265682 2.4983978-.2289448C49.9756432 22.1748142 50.0166016 22.2185898 50.0455704 22.2664318zM51.5035095 24.9707584c-.9354668-.0865154-1.8759575-.0658779-2.8028412.0521526-.0125389-.0465012-.0250778-.0930023-.0436478-.1342983.9225311-.1242561 1.8684578-.1440811 2.7990227-.0638447C51.4740486 24.8718052 51.492054 24.9188442 51.5035095 24.9707584zM51.9598541 29.0686932c-.943531-.2907333-1.9216156-.4659023-2.9112282-.5182743.0104179-.0497627.0093613-.0951328.0083046-.1405048.9896126.052372 1.9671478.2274876 2.9112244.5182743C51.9692116 28.9735603 51.9642639 29.0238609 51.9598541 29.0686932zM50.7791862 33.0847893c-.015892.0437012-.0421562.0805893-.0689812.1232147-.8630943-.3620338-1.7766075-.6155891-2.702198-.7463989.0268288-.0426292.0487251-.0912628.0700874-.1344261C49.0036812 32.4579887 49.9160843 32.7172318 50.7791862 33.0847893z" class="colorf58210 svgShape">
	</path>
	<path fill="#ffd880" d="M49.0292587,28.8651047c-0.0005646,0.0057411-0.0005646,0.0057411-0.0005646,0.0057411
									c-0.127243,1.2933178-0.4720345,2.4973335-0.9949608,3.5593376
									c-2.1273003,4.4155121-6.7731781,5.7432289-9.9654732,2.8125801
									c-2.0494995-1.9132652-2.8504066-4.9294605-2.5774536-7.7038383
									c0.4665565-4.7421684,3.8739052-8.290226,7.6081543-7.9228325
									C46.4555092,19.9463253,49.5405807,23.6679344,49.0292587,28.8651047z" class="colorffd880 svgShape">
	</path>
	<path d="M49.0286942,28.8708458c-0.127243,1.2933178-0.4720345,2.4973335-0.9949608,3.5593376
									c-2.1273003,4.4155121-6.7731781,5.7432289-9.9654732,2.8125801
									c0.1164017,0.0793533,0.2393532,0.1538315,0.3628883,0.2167702
									c3.1101952,2.3165894,7.3912392,0.9454346,9.4157295-3.2566757
									C48.2006378,31.4799938,48.9109039,29.2040024,49.0286942,28.8708458z" fill="#000000" class="color000 svgShape">
	</path>
	<path d="M47.0681572,28.8303261c-0.3587952,3.6468277-2.7281685,6.4017601-5.2854004,6.1501656
									c-2.8213959-0.2775803-4.3054581-3.8050594-3.9850006-7.0622311
									c0.3588142-3.6470776,2.7281914-6.4020081,5.2849274-6.150465c0.0920219,0.0090542,0.1780815,0.0225449,0.2686043,0.0417461
									C45.7616234,22.2423019,47.414444,25.3105888,47.0681572,28.8303261z" fill="#000000" class="color000 svgShape">
	</path>
	<path fill="#ff9f1c" d="M46.6723633,28.6056538c-0.3587914,3.6468296-2.7281685,6.4017582-5.2854004,6.1501675
									c-0.1477318-0.014534-0.2944641-0.0392685-0.4401894-0.0741959
									c-2.3167419-0.5468521-3.8825569-3.5550976-3.5448112-6.9880352
									c0.3588181-3.6470776,2.7281952-6.4020081,5.2849274-6.150465c0.0920219,0.0090542,0.1780853,0.022543,0.2686081,0.0417442
									C45.3658295,22.0176296,47.0186539,25.0859165,46.6723633,28.6056538z" class="colorff9f1c svgShape">
	</path>
	<path fill="#f58210" d="M38.987339 27.0001869c.6012993.0411034 1.063179-1.54352.2836151-1.6323795C38.4946671 25.2793198 38.3520508 26.9567585 38.987339 27.0001869zM39.5099106 25.0276012c.3561058.0243435.6296463-.9141121.1679649-.9667377C39.2181396 24.0084591 39.1336746 25.0018826 39.5099106 25.0276012z" class="colorf58210 svgShape">
	</path>
	<path fill="#ff9f1c" d="M46.9792137,36.6565971c-1.5046768,0.6045494-2.9296227,0.4318047-4.6264038,0.1382675
									c-0.0826759-0.0163956-0.0925331-0.0184937-0.2927284-0.0682983
									c0.2114258,0.0131836,1.315918-17.0800762,1.1044922-17.0932598
									c0.3242188-0.0498047,1.5188446,0.1386719,1.8151894,0.1733494c1.149044,0.1310787,1.9221573,0.1834679,2.8657455,0.6887932
									c1.062645,0.5673618,1.9019394,1.2472744,2.6397743,2.3571701
									C53.5921288,27.5431194,51.6619987,34.8245773,46.9792137,36.6565971z" class="colorff9f1c svgShape">
	</path>
	<path fill="#f58210" d="M51.7982864,30.1946812c-0.6482964,3.3870602-2.7157478,5.6383495-4.8190727,6.461916
									c-1.5046768,0.6045494-2.9296227,0.4318047-4.6264038,0.1382675
									c-0.0552292-0.010952-0.1110039-0.0219612-0.1711121-0.0394669
									c-0.0043907-0.0114746-0.0093002-0.0232735-0.0081978-0.034481c1.8623657-0.0464935,3.5138779-1.0662079,4.6937332-2.489109
									c0.0005379-0.0054665,0.0005379-0.0054665,0.0005379-0.0054665c0.8975029-1.0762177,1.5803299-2.4448795,1.9363213-3.992815
									c0.0169411-0.0038528,0.0284233-0.0027237,0.045372-0.0010567c0.0619659,1.2666683-0.3747406,2.5408573-1.2092667,3.498785
									c-0.1214867,0.140686-0.2539101,0.2802963-0.3272934,0.4538651
									c-0.0728455,0.1681061-0.0719185,0.3887329,0.0613823,0.5263329
									c0.1699524,0.1690826,0.4510269,0.1233139,0.6747169,0.0379524
									C50.4546471,33.8650093,51.1697845,30.2813511,51.7982864,30.1946812z" class="colorf58210 svgShape">
	</path>
	<path d="M48.646492,35.6845436c-0.5087852,0.4020576-1.0672874,0.7371216-1.6672783,0.9720535
									c-1.5046768,0.6045494-2.9296227,0.4318047-4.6264038,0.1382675
									c-0.0552292-0.010952-0.1110039-0.0219612-0.1711121-0.0394669
									c-0.0043907-0.0114746-0.0093002-0.0232735-0.0081978-0.034481c1.8623657-0.0464935,3.5138779-1.0662079,4.6937332-2.489109
									l-0.0246582,0.0823097c-0.2054672,0.6470566-1.0958252,1.5801392-1.647789,1.9803314
									c-0.0547104,0.0398827-0.1159744,0.0846405-0.1335258,0.1508141
									c-0.0197372,0.082798,0.039257,0.1733398,0.1201439,0.2152481c0.080883,0.0363846,0.1716499,0.0340004,0.2624207,0.0316124
									C46.5549889,36.631916,47.6608124,36.229351,48.646492,35.6845436z" fill="#000000" class="color000 svgShape">
	</path>
	<path fill="#f58210" d="M48.1083794 20.640276c-.7835007-.0207767-1.5654335-.0013771-2.3451805.0519123-.0628395-.0514488-.121315-.0911522-.1852531-.1313934.7518616-.0560322 1.5113525-.077364 2.2675629-.0653458C47.9367676 20.5441742 48.0225868 20.5920887 48.1083794 20.640276zM50.0455704 22.2664318c-.8420486-.0036278-1.6858025.0717945-2.5197411.2158051-.0240097-.0421085-.0540619-.0845356-.089035-.1274471.8224564-.1451416 1.6612816-.2265682 2.4983978-.2289448C49.9756432 22.1748142 50.0166016 22.2185898 50.0455704 22.2664318zM51.5035095 24.9707584c-.9354668-.0865154-1.8759575-.0658779-2.8028412.0521526-.0125389-.0465012-.0250778-.0930023-.0436478-.1342983.9225311-.1242561 1.8684578-.1440811 2.7990227-.0638447C51.4740486 24.8718052 51.492054 24.9188442 51.5035095 24.9707584zM51.9598541 29.0686932c-.943531-.2907333-1.9216156-.4659023-2.9112282-.5182743.0104179-.0497627.0093613-.0951328.0083046-.1405048.9896126.052372 1.9671478.2274876 2.9112244.5182743C51.9692116 28.9735603 51.9642639 29.0238609 51.9598541 29.0686932zM50.7791862 33.0847893c-.015892.0437012-.0421562.0805893-.0689812.1232147-.8630943-.3620338-1.7766075-.6155891-2.702198-.7463989.0268288-.0426292.0487251-.0912628.0700874-.1344261C49.0036812 32.4579887 49.9160843 32.7172318 50.7791862 33.0847893z" class="colorf58210 svgShape">
	</path>
	<path fill="#ffd880" d="M49.0292587,28.8651047c-0.0005646,0.0057411-0.0005646,0.0057411-0.0005646,0.0057411
									c-0.127243,1.2933178-0.4720345,2.4973335-0.9949608,3.5593376
									c-2.1273003,4.4155121-6.7731781,5.7432289-9.9654732,2.8125801
									c-2.0494995-1.9132652-2.8504066-4.9294605-2.5774536-7.7038383
									c0.4665565-4.7421684,3.8739052-8.290226,7.6081543-7.9228325
									C46.4555092,19.9463253,49.5405807,23.6679344,49.0292587,28.8651047z" class="colorffd880 svgShape">
	</path>
	<path fill="#ff9f1c" d="M46.6723633,28.6056538c-0.3587914,3.6468296-2.7281685,6.4017582-5.2854004,6.1501675
									c-0.1477318-0.014534-0.2944641-0.0392685-0.4401894-0.0741959
									c-2.3167419-0.5468521-3.8825569-3.5550976-3.5448112-6.9880352
									c0.3588181-3.6470776,2.7281952-6.4020081,5.2849274-6.150465c0.0920219,0.0090542,0.1780853,0.022543,0.2686081,0.0417442
									C45.3658295,22.0176296,47.0186539,25.0859165,46.6723633,28.6056538z" class="colorff9f1c svgShape">
	</path>
	<path fill="#f58210" d="M38.987339 27.0001869c.6012993.0411034 1.063179-1.54352.2836151-1.6323795C38.4946671 25.2793198 38.3520508 26.9567585 38.987339 27.0001869zM39.5099106 25.0276012c.3561058.0243435.6296463-.9141121.1679649-.9667377C39.2181396 24.0084591 39.1336746 25.0018826 39.5099106 25.0276012z" class="colorf58210 svgShape">
	</path>
	<g>
		<path d="M40.0639687,28.1891613l2.0467758,1.4753399c0.0613785,0.0357399,0.1153336,0.0517845,0.1931877-0.0009861
								l2.0338135-1.4636726c0.0479851-0.0327511,0.0824013-0.0896149,0.0888443-0.1546612
								c0.0348778-0.1461086,0.0442505-0.0052757-2.0765076-3.5615635c-0.0278511-0.0565472-0.0831528-0.080843-0.1383476-0.0805607
								c-0.0620003-0.0159359-0.1308517,0.016922-0.1719627,0.0821457l-2.0323601,3.3958302
								C39.9504013,27.9499397,39.9581757,28.120821,40.0639687,28.1891613z" fill="#000000" class="color000 svgShape">
		</path>
		<path d="M40.1566238,28.8221703c0.0485573,0.0972729,0.1041107,0.1778603,0.1526337,0.2672024
							c0.4179077,0.7174339,1.3165131,2.2338467,1.7501259,2.9705791c0.1081543,0.1261787,0.2437019,0.1100082,0.3032417-0.0015488
							c0.0577164-0.1002903,1.5684586-2.7187786,1.6691093-2.8825893c0.0617981-0.1057644,0.1713524-0.2200966,0.1983757-0.3502617
							c0.0406113-0.1785984-0.0556221-0.0968399-0.1377945-0.0318031c-1.9808197,1.4143791-1.8029213,1.2832775-1.8141212,1.2920876
							c-0.0363655,0.0432453-0.0980682,0.0389957-0.1170502,0.0168514c-0.0137978,0.0000706-0.0276337-0.0077877-0.0344009-0.016077
							c-0.581955-0.413517-1.6344528-1.1836014-1.8188438-1.3056469c-0.0759773-0.0566978-0.1728592-0.1212158-0.1932793-0.0965328
							C40.1008911,28.7007542,40.1078033,28.7411537,40.1566238,28.8221703z" fill="#000000" class="color000 svgShape">
		</path>
		<path fill="#ffd880" d="M39.9744492,27.7695217c-0.0063744,0.0813007,0.0283127,0.1623898,0.0904198,0.202507
								c1.8695145,1.3441143,1.9951591,1.4602833,2.0953484,1.4996719c0.0414696,0.0160408,0.0962906,0.0074368,0.1446114-0.0253162
								l2.0338173-1.4636726c0.0862503-0.0588722,0.1268082-0.2017326,0.0605316-0.3166542l-2.0481987-3.3995705
								c-0.0278473-0.0565472-0.0831528-0.080843-0.1383476-0.0805607c-0.0619965-0.0159359-0.1308479,0.016922-0.1719589,0.0821457
								l-2.0323601,3.3958282C39.9878922,27.6885834,39.9813728,27.7369804,39.9744492,27.7695217z" class="colorffd880 svgShape">
		</path>
		<path fill="#ffca28" d="M40.1575241,28.6050396c0.0485573,0.0972729,0.1041107,0.1778584,0.1526337,0.2672024
							c0.4179077,0.717432,1.3165131,2.2338467,1.7501259,2.9705772c0.0277405,0.0323658,0.0554428,0.056406,0.0830803,0.0645905
							c0.0759392,0.0483723,0.1724243,0.0233002,0.2201576-0.0661373c0.0577202-0.1002903,1.5684586-2.7187786,1.6691132-2.8825893
							c0.0617981-0.1057644,0.1713524-0.2200985,0.1983757-0.3502617c0.0406113-0.1785984-0.0556259-0.0968399-0.1377983-0.0318031
							c-1.9808159,1.4143791-1.8029175,1.2832775-1.8141174,1.2920876
							c-0.0363693,0.0432453-0.0980721,0.0389957-0.1170502,0.0168514c-0.0138016,0.0000706-0.0276337-0.0077877-0.0344009-0.016077
							c-0.581955-0.4135189-1.6344566-1.1836014-1.8188477-1.3056469c-0.0759773-0.0566978-0.1728554-0.1212158-0.1932793-0.0965347
							C40.1017914,28.4836235,40.1086998,28.5240231,40.1575241,28.6050396z" class="colorffca28 svgShape">
		</path>
		<path fill="#ffca28" d="M39.9744492,27.7695217c-0.0063744,0.0813007,0.0283127,0.1623898,0.0904198,0.202507
							l2.0467758,1.4753418c0.055378,0.0405483,0.1314392,0.0401611,0.1931839-0.0009861l2.0338173-1.4636726
							c0.0479813-0.0327511,0.0823975-0.0896149,0.0888443-0.1546612l-2.1777649-1.050375
							C42.2497253,26.7776756,40.8756828,27.3673077,39.9744492,27.7695217z" class="colorffca28 svgShape">
		</path>
		<path fill="#ff9f1c" d="M40.1155167 28.4672985c-.0137253.016325-.0068169.0567245.0420074.1377411.0485573.0972729.1041107.1778584.1526337.2672024.4179077.717432 1.3165131 2.2338467 1.7501259 2.9705772.0277405.0323658.0554428.056406.0830803.0645905-.002079-.4709396.0085335-1.1936741.0186806-2.0218525-.0138016.0000706-.0276337-.0077877-.0344009-.016077-.581955-.4135189-1.6344566-1.1836014-1.8188477-1.3056469C40.2328186 28.5071354 40.1359406 28.4426174 40.1155167 28.4672985zM39.9744492 27.7695217c-.0063744.0813007.0283127.1623898.0904198.202507 1.8695145 1.3441143 1.9951591 1.4602833 2.0953484 1.4996719.0194702-1.8430691.0439529-4.0758476.0524139-5.2857742-.0619965-.0159359-.1308479.016922-.1719589.0821457l-2.0323601 3.3958282C39.9878922 27.6885834 39.9813728 27.7369804 39.9744492 27.7695217z" opacity=".42" class="colorff9f1c svgShape">
		</path>
	</g>
	<g>
		<path fill="#f72f43" d="M17.9312706,15.6463585l3.2668362,0.2503471c1.0902977-1.1398067,2.3946438-2.0711813,3.8422604-2.7336292
					c4.8572178-2.2206593,10.5495758-1.0473537,14.0049248,2.4607077c0.0877266,0.0359077,1.2213478,1.3220797,1.3225937,1.5215502
					c0.3422318,0.4527721,0.8548431-0.3408394,2.2886581-1.1182384c0.1662331-0.0904856,0.2206917-0.3113003,0.1110611-0.4696178
					c-2.917984-4.250061-6.027462-5.9415054-11.3724518-6.3511086C26.0241661,8.7947741,20.993021,11.4296761,17.9312706,15.6463585
					z" class="colorf72f43 svgShape">
		</path>
		<path fill="#e2212e" d="M41.428791,16.8197517c-0.2001953,0.1298828-0.3999023,0.2700195-0.6499023,0.4199219
					c-0.1401367,0.0800781-0.3100586,0.0400391-0.4101563-0.0898438c-0.0097656-0.0297852-0.0400391-0.050293-0.0600586-0.0698242
					c-0.5609894-0.875021-2.3025284-2.5024233-2.8100586-2.75c-3.2884636-2.4208212-8.1785583-3.1154871-12.4599628-1.1704102
					c-1.2918949,0.5806999-2.6749096,1.5331697-3.8398438,2.7402344c-0.9667225-0.0739079-3.4180717-0.2613192-3.2700195-0.25
					c1.6283607-2.2426519,3.8212414-3.9773636,5.8198242-4.9301758c0.9407578,1.1079311,2.3710556,0.9393835,3.7700195,0.8300781
					c2.1298828-0.1796875,4.2802734-0.1699219,6.4101582,0.0498047c2.0200195,0.2104492,4.1298828,0.6401367,5.6499023,1.9804688
					C40.5288887,14.4198494,41.1885567,15.5800056,41.428791,16.8197517z" class="colore2212e svgShape">
		</path>
		<path d="M24.1988087,13.5897713c-0.8665676,0.4786434-1.7554455,1.1336279-2.1401367,1.5
					c-0.3496094,0.25-0.6796875,0.5200195-1,0.7998047l-3.1298828-0.2397461
					c1.0600586-1.4599609,2.3701172-2.75,3.8701172-3.7797852C22.4488087,12.6200447,23.2788868,13.2098885,24.1988087,13.5897713z" fill="#000000" class="color000 svgShape">
		</path>
		<path fill="#e2212e" d="M17.0633793,18.5939617c0.1532784,0.1383171,0.4939613-0.0841389,0.6487217-0.1473522
					c0.1681042-0.065321,5.9444809-2.414402,5.8443851-2.3737507l1.0788403-0.4377975
					c0.1938572-0.0835619,0.2804871-0.2971048,0.1958618-0.4770813c-0.1002884-0.0879087-5.5756397-4.8874073-5.2269077-4.5817223
					c-0.1969261-0.1840048-0.5198402-0.0679893-0.582058,0.1943445c-0.0208893,0.0874338-0.0461044,0.1745358-0.0670128,0.2621965
					c-0.4466782,1.6802082-1.6695766,6.325449-1.7513885,6.5827084
					C17.1003456,17.9264069,16.9199181,18.4470139,17.0633793,18.5939617z" class="colore2212e svgShape">
		</path>
		<path fill="#f72f43" d="M17.2038212,17.6155071c2.8437424,0.334156,5.8781929-2.584507,3.4186211-5.2785034
					c-0.4800644-0.5243025-1.0682087-0.9255095-1.6672325-1.3042049
					C18.5085316,12.713007,17.2856331,17.3582478,17.2038212,17.6155071z" class="colorf72f43 svgShape">
		</path>
		<path fill="#e2212e" d="M19.8346176 15.6412144c.0859509-.3144846-.0079594-.6676321-.2214527-.9108677-.1732464-.1973839-.3770866-.3004656-.5001068-.0207558C18.8401756 15.3300486 19.6247768 16.4089909 19.8346176 15.6412144zM19.843996 13.9386454c.0605087-.2213945-.0056038-.4700069-.155901-.641243-.3231602-.3681841-.4970264.0978193-.3045502.5485096C19.4771805 14.0651655 19.7455311 14.298914 19.843996 13.9386454z" class="colore2212e svgShape">
		</path>
	</g>
	<g>
		<path fill="#095da4" d="M39.3146095,40.3536415l-3.2668343-0.2503471
					c-4.9704857,5.1961975-13.1763515,5.015007-17.847187,0.2729225c-0.1002712-0.0410461-0.9542866-1.0222664-1.2668247-1.4518204
					c-0.0216599-0.0250053-0.043438-0.0454407-0.0557671-0.0697327c-0.3422318-0.4527702-0.8548431,0.3408394-2.2886591,1.1182404
					c-0.166234,0.0904846-0.2206917,0.3113022-0.1110601,0.4696198c2.9179821,4.2500572,6.0274639,5.9415016,11.3724518,6.3511047
					C31.2217159,47.2052269,36.252861,44.5703239,39.3146095,40.3536415z" class="color095da4 svgShape">
		</path>
		<path fill="#28b6f4" d="M39.3146095,40.3536415l-3.2668343-0.2503471
					c-3.1303558,3.2725067-7.774725,4.5935669-12.1497574,3.4844666c-1.1403637-0.2991295-2.530407-0.8405647-3.4997044-1.4915543
					c-0.7836342-0.3858643-2.5962353-1.9203491-3.46455-3.1718102c-0.0216599-0.0250053-0.043438-0.0454407-0.0557671-0.0697327
					c-0.0978794-0.1294937-0.2727623-0.1710472-0.4099293-0.0925255c-0.2502842,0.144928-0.4484291,0.2844658-0.6462088,0.4192238
					c0.237628,1.2418022,0.8938837,2.4028435,1.842679,3.2349739c1.5237179,1.3401299,3.6324406,1.7784424,5.650919,1.984623
					c2.1304321,0.2147598,4.2804089,0.2341805,6.4131947,0.050869c1.415987-0.1198425,2.8496113-0.2700768,3.7658176,0.8324051
					C35.5875626,44.2732391,37.7153053,42.5562248,39.3146095,40.3536415z" class="color28b6f4 svgShape">
		</path>
		<path fill="#095da4" d="M40.0386543,38.3798103c-0.0118561,0.0474205-1.80476,6.804409-1.8198242,6.8500977
					c-0.0600586,0.2597656-0.3798828,0.3798828-0.5800781,0.1899414c-0.1002426-0.0879631-5.3199005-4.6681175-5.2197266-4.5800781
					c-0.090332-0.1801758,0-0.3901367,0.1899414-0.4697266c0.1000137-0.0406952,6.6983948-2.7280121,6.9199219-2.8203125
					c0.159668-0.0600586,0.5-0.2797852,0.6499023-0.1401367C40.3286934,37.5497322,40.1485176,38.0697517,40.0386543,38.3798103z" class="color095da4 svgShape">
		</path>
	</g>
	<g>
		<path fill="#28b6f4" d="M40.0386543,38.3798103c-0.0250168,0.1000557-0.6398697,2.4007339-0.6699219,2.5297852
				c-1.8153534,0.6628151-3.7865334,0.0844269-5.3198242-1.1298828c0.1193542-0.0484047,5.3490257-2.1754189,5.4799805-2.2299805
				c0.159668-0.0600586,0.5-0.2797852,0.6499023-0.1401367C40.3286934,37.5497322,40.1485176,38.0697517,40.0386543,38.3798103z" class="color28b6f4 svgShape">
		</path>
	</g>
</svg>
